<svg xmlns="http://www.w3.org/2000/svg" xml:space="preserve" width="432.5" height="500" viewBox="0 0 432.5 500"><path d="m0 0-62.354-36v-72L0-144l62.206 35.915v72.17z" style="fill:#fff;fill-opacity:1;fill-rule:nonzero;stroke:none" transform="matrix(3.47222 0 0 -3.47222 216.507 0)"/><path d="m0 0-51.473 29.118V7.749L-18.49-10.38l.263-.148zm-107.354 0 51.473 29.118V7.749l-32.983-18.145-.263-.148zm-2.155-63.219v59.37l18.358-10.611v-38.165zm3.438-3.11 50.19-28.393v22.109L-87.17-55.406zm108.226 3.11v59.37L-16.203-14.46v-38.165zm-3.438-3.11-50.19-28.393v22.109L-20.2-55.406z" style="fill:#8ed6fb;fill-opacity:1;fill-rule:nonzero;stroke:none" transform="matrix(3.47222 0 0 -3.47222 402.63 136.103)"/><path d="m0 0 30.976 17.026L61.952 0 30.976-17.882Zm33.18-54.468 30.861 16.96v33.626L33.18-21.698Zm-4.409 0-30.86 16.977v33.609l30.86-17.816z" style="fill:#1c78c0;fill-opacity:1;fill-rule:nonzero;stroke:none" transform="matrix(3.47222 0 0 -3.47222 108.696 181.627)"/></svg>